<svg xmlns="http://www.w3.org/2000/svg" enable-background="new 0 0 32 32" viewBox="0 0 32 32"><path fill="none" stroke="#000" stroke-linecap="round" stroke-linejoin="round" stroke-miterlimit="10" stroke-width="2" d="
	M19,13c0,5.523-2.648,10-8,10c-5.333,0-8-4.477-8-10S5.694,3,11,3C16.333,3,19,7.477,19,13z"/><path fill="none" stroke="#000" stroke-linecap="round" stroke-linejoin="round" stroke-miterlimit="10" stroke-width="2" d="M11 7c-1.25 2.625-1.358 2.845 0 6 1.417 3.292 1.229 3.396 0 6M25 21c-2.316-1.103-2.76-1.317-5-.419"/><path fill="none" stroke="#000" stroke-linecap="round" stroke-linejoin="round" stroke-miterlimit="10" stroke-width="2" d="
	M19,13c0,5.523-2.648,10-8,10c-0.642,0-1.244-0.068-1.809-0.192C10.093,26.947,14.14,29,19,29c5.523,0,10-2.667,10-8
	C29,15.694,24.523,13,19,13z"/></svg>